<svg width="80" height="90" viewBox="0 0 80 90" fill="none" xmlns="http://www.w3.org/2000/svg">
<path d="M78.5714 5.98651H68.5714V1.49663C68.5714 0.668993 67.9329 0 67.1429 0H57.1429C56.3529 0 55.7143 0.668993 55.7143 1.49663V5.98651H24.2857V1.49663C24.2857 0.668993 23.6471 0 22.8571 0H12.8571C12.0671 0 11.4286 0.668993 11.4286 1.49663V5.98651H1.42857C0.638572 5.98651 0 6.6555 0 7.48314V23.946V88.301C0 89.1287 0.638572 89.7977 1.42857 89.7977H78.5714C79.3614 89.7977 80 89.1287 80 88.301V23.946V7.48314C80 6.6555 79.3614 5.98651 78.5714 5.98651ZM58.5714 2.99326H65.7143V7.48314V11.973H58.5714V7.48314V2.99326ZM14.2857 2.99326H21.4286V7.48314V11.973H14.2857V7.48314V2.99326ZM2.85714 8.97976H11.4286V13.4696C11.4286 14.2973 12.0671 14.9663 12.8571 14.9663H22.8571C23.6471 14.9663 24.2857 14.2973 24.2857 13.4696V8.97976H55.7143V13.4696C55.7143 14.2973 56.3529 14.9663 57.1429 14.9663H67.1429C67.9329 14.9663 68.5714 14.2973 68.5714 13.4696V8.97976H77.1429V22.4494H2.85714V8.97976ZM2.85714 86.8044V25.4427H77.1429V86.8044H2.85714Z" fill="black"/>
<path d="M51.4284 34.4224H41.4284H38.5712H28.5712H25.7141H12.8569V47.8919V50.8852V61.3615V64.3547V77.8243H25.7141H28.5712H38.5712H41.4284H51.4284H54.2855H67.1427V64.3547V61.3615V50.8852V47.8919V34.4224H54.2855H51.4284ZM41.4284 37.4156H51.4284V47.8919H41.4284V37.4156ZM51.4284 61.3615H41.4284V50.8852H51.4284V61.3615ZM28.5712 50.8852H38.5712V61.3615H28.5712V50.8852ZM28.5712 37.4156H38.5712V47.8919H28.5712V37.4156ZM15.7141 37.4156H25.7141V47.8919H15.7141V37.4156ZM15.7141 50.8852H25.7141V61.3615H15.7141V50.8852ZM25.7141 74.8311H15.7141V64.3547H25.7141V74.8311ZM38.5712 74.8311H28.5712V64.3547H38.5712V74.8311ZM51.4284 74.8311H41.4284V64.3547H51.4284V74.8311ZM64.2855 74.8311H54.2855V64.3547H64.2855V74.8311ZM64.2855 61.3615H54.2855V50.8852H64.2855V61.3615ZM64.2855 37.4156V47.8919H54.2855V37.4156H64.2855Z" fill="black"/>
</svg>
