<svg width="80" height="80" viewBox="0 0 80 80" fill="none" xmlns="http://www.w3.org/2000/svg">
<path d="M75.1593 33.4634H59.3111C58.507 33.4634 57.857 34.1134 57.857 34.9175C57.857 35.7216 58.507 36.3716 59.3111 36.3716H72.5463L76.7617 75.6322H3.29789L8.24618 36.3716H21.5046C22.3087 36.3716 22.9587 35.7216 22.9587 34.9175C22.9587 34.1134 22.3087 33.4634 21.5046 33.4634H5.68115L0 78.5404H80L75.1593 33.4634Z" fill="black"/>
<path d="M38.7575 56.6632C38.5438 56.7897 38.3155 56.9017 38.1105 57.034C37.7906 57.2405 37.4779 57.4572 37.1711 57.6811C36.5241 58.1566 36.3845 59.0669 36.8585 59.7139C37.1435 60.1022 37.5855 60.3072 38.0334 60.3072C38.3315 60.3072 38.6325 60.2156 38.8928 60.0266C39.1516 59.8361 39.4148 59.6529 39.6896 59.4755C40.1564 59.173 40.6522 58.8895 41.1641 58.6306C41.8446 58.286 42.1209 57.4804 41.8359 56.7854C41.8475 56.7738 41.862 56.765 41.8722 56.7534C44.5027 53.9673 53.3668 43.5269 57.037 26.133C57.7815 22.6054 57.9487 19.2203 57.5343 16.0722C56.2838 6.51147 50.3438 1.45703 40.357 1.45703C30.3732 1.45703 24.4332 6.51147 23.1798 16.0722C22.7669 19.2217 22.9341 22.6069 23.6786 26.133C27.3124 43.3583 36.0369 53.758 38.7575 56.6632ZM26.0633 16.4517C27.1291 8.32036 31.8055 4.36668 40.3585 4.36668C48.9129 4.36668 53.5879 8.32036 54.6523 16.4517C55.0231 19.2726 54.8675 22.3306 54.1928 25.5354C50.8934 41.1713 43.0268 51.0926 40.3585 54.1026C37.6873 51.0897 29.8221 41.164 26.5242 25.5354C25.8481 22.3306 25.6939 19.2741 26.0633 16.4517Z" fill="black"/>
<path d="M40.3583 28.973C46.2488 28.973 51.0401 24.1817 51.0401 18.2912C51.0401 12.4006 46.2488 7.60938 40.3583 7.60938C34.4678 7.60938 29.6765 12.4006 29.6765 18.2912C29.6765 24.1817 34.4678 28.973 40.3583 28.973ZM40.3583 10.519C44.6435 10.519 48.1319 14.0059 48.1319 18.2926C48.1319 22.5793 44.645 26.0662 40.3583 26.0662C36.0716 26.0662 32.5847 22.5793 32.5847 18.2926C32.5847 14.0059 36.0731 10.519 40.3583 10.519Z" fill="black"/>
<path d="M45.6995 54.049C44.9143 54.2148 44.4141 54.9883 44.5813 55.775C44.7267 56.4584 45.3301 56.9252 46.0019 56.9252C46.1023 56.9252 46.2055 56.915 46.3073 56.8932C47.1594 56.7129 48.0827 56.5602 49.0497 56.4381C49.8466 56.3406 50.4137 55.6136 50.3133 54.8168C50.2145 54.0185 49.4947 53.4426 48.692 53.5531C47.6407 53.6826 46.633 53.8498 45.6995 54.049Z" fill="black"/>
<path d="M53.2184 54.6395C53.2504 55.4203 53.8961 56.031 54.6696 56.031C54.6914 56.031 54.7118 56.031 54.7336 56.0296L57.6433 55.9089C58.4445 55.8725 59.0668 55.192 59.029 54.3908C58.9927 53.5867 58.2453 52.96 57.5109 53.0036L54.6086 53.1243C53.8059 53.1577 53.1835 53.8354 53.2184 54.6395Z" fill="black"/>
<path d="M32.6197 61.3296C31.8723 61.8937 31.1002 62.4361 30.3223 62.9392C29.649 63.3769 29.4571 64.277 29.8947 64.9517C30.1725 65.3807 30.6407 65.6133 31.1162 65.6133C31.3881 65.6133 31.6615 65.5377 31.9072 65.3792C32.7404 64.8383 33.5707 64.2567 34.3719 63.6518C35.0117 63.1675 35.1397 62.2558 34.6569 61.6146C34.1727 60.9791 33.2639 60.8453 32.6197 61.3296Z" fill="black"/>
<path d="M65.0272 51.7413C64.5357 52.0859 63.8974 52.336 63.07 52.5061C62.2833 52.6675 61.7773 53.4382 61.9401 54.2249C62.0826 54.9127 62.6876 55.3852 63.3637 55.3852C63.4611 55.3852 63.56 55.3751 63.6589 55.3547C64.8832 55.1017 65.8778 54.6975 66.7067 54.1144L66.9015 53.9719C67.5413 53.4862 67.6678 52.5745 67.1836 51.9347C66.6979 51.2949 65.7877 51.1698 65.1464 51.6526L65.0272 51.7413Z" fill="black"/>
<path d="M12.8832 63.1106C13.0941 62.3355 12.6346 61.5372 11.8596 61.3278C11.0903 61.1112 10.2862 61.5736 10.0768 62.3515C9.89363 63.0262 9.78457 63.7155 9.74967 64.3945C9.7424 64.5618 9.73804 64.7304 9.73804 64.9078C9.73949 65.1928 9.75258 65.4778 9.78021 65.7614C9.85727 66.5102 10.4884 67.0672 11.2256 67.0672C11.2736 67.0672 11.323 67.0643 11.3754 67.0599C12.1736 66.977 12.7553 66.2645 12.6753 65.4647C12.655 65.2743 12.6477 65.0809 12.6462 64.8976C12.6462 64.777 12.6506 64.6563 12.6564 64.537C12.6797 64.0659 12.7553 63.5846 12.8832 63.1106Z" fill="black"/>
<path d="M64.9953 40.4385C63.8407 40.2844 62.6629 40.3789 61.5258 40.7017C60.7522 40.9183 60.3029 41.7225 60.5225 42.4946C60.7028 43.1358 61.2859 43.5546 61.9199 43.5546C62.0522 43.5546 62.1845 43.5372 62.3154 43.4994C63.0715 43.2871 63.8495 43.2202 64.6056 43.322C65.4228 43.4237 66.1353 42.8697 66.2414 42.0758C66.349 41.2775 65.7907 40.5461 64.9953 40.4385Z" fill="black"/>
<path d="M67.8888 47.6423C67.6518 48.4086 68.0822 49.2243 68.8485 49.4599C68.9925 49.505 69.135 49.5253 69.2775 49.5253C69.8998 49.5253 70.4742 49.1255 70.6662 48.5002C70.8101 48.0378 70.8988 47.5681 70.9322 47.0999C70.9395 46.9792 70.9439 46.8571 70.9439 46.7364C70.9439 46.0559 70.8188 45.3739 70.5731 44.7123C70.2939 43.9576 69.452 43.5766 68.7046 43.8544C67.9499 44.1336 67.5675 44.9711 67.8467 45.7229C67.9717 46.0602 68.0357 46.4019 68.0357 46.7349L68.0313 46.9051C68.0139 47.1464 67.9673 47.3878 67.8888 47.6423Z" fill="black"/>
<path d="M25.4191 65.673C24.567 66.0728 23.6989 66.4436 22.8395 66.7766C22.0907 67.0645 21.7184 67.9064 22.0078 68.6568C22.2303 69.2326 22.7799 69.5874 23.3645 69.5874C23.539 69.5874 23.7164 69.5568 23.8879 69.49C24.8113 69.1337 25.7419 68.7353 26.6551 68.3078C27.3821 67.9675 27.6948 67.1009 27.3531 66.3738C27.0142 65.6453 26.1505 65.3298 25.4191 65.673Z" fill="black"/>
<path d="M14.8333 59.6192C15.0674 59.6192 15.3059 59.5625 15.5284 59.4418C15.9472 59.2135 16.3936 59.071 16.8531 59.0215C17.0494 58.9983 17.25 58.9983 17.4434 59.0245C18.2621 59.1306 18.9702 58.5693 19.0749 57.7739C19.1796 56.9771 18.6198 56.2471 17.8244 56.1424C17.3911 56.0857 16.9505 56.0828 16.5288 56.1308C15.6942 56.2224 14.8886 56.4783 14.1354 56.8884C13.4301 57.2737 13.1698 58.1549 13.5552 58.8601C13.8198 59.3458 14.3186 59.6192 14.8333 59.6192Z" fill="black"/>
<path d="M14.5308 71.0211C14.8449 71.1025 15.1648 71.1636 15.4818 71.2014C15.854 71.2464 16.2263 71.2697 16.6 71.2697C17.0551 71.2697 17.5117 71.2377 17.9668 71.1796C18.7637 71.0792 19.3293 70.3522 19.2275 69.5553C19.1257 68.7585 18.403 68.1972 17.6033 68.2946C17.0158 68.3702 16.4226 68.3877 15.8351 68.3164C15.6432 68.2917 15.4512 68.2554 15.2622 68.2074C14.4843 67.9994 13.6918 68.4706 13.4882 69.2485C13.289 70.0265 13.7543 70.8204 14.5308 71.0211Z" fill="black"/>
</svg>
